<?xml version="1.0" encoding="utf-8"?>
<!-- Generator: Adobe Illustrator 24.0.0, SVG Export Plug-In . SVG Version: 6.00 Build 0)  -->
<svg version="1.1" id="Layer_1" xmlns="http://www.w3.org/2000/svg" xmlns:xlink="http://www.w3.org/1999/xlink" x="0px" y="0px"
	 viewBox="0 0 30 24" style="enable-background:new 0 0 30 24;" xml:space="preserve">
<style type="text/css">
	.st0{fill:#FFFFFF;}
</style>
<g>
	<g>
		<path class="st0" d="M14.1,13.1c0-0.2-0.1-0.3-0.2-0.4L3.6,2.3C3.4,2.1,3,2.1,2.7,2.3L0.2,4.8C0.1,5,0,5.1,0,5.3
			c0,0.2,0.1,0.3,0.2,0.4l7.3,7.3l-7.3,7.3C0.1,20.5,0,20.7,0,20.8s0.1,0.3,0.2,0.4l2.5,2.5C2.8,23.9,3,24,3.2,24
			c0.2,0,0.3-0.1,0.4-0.2l10.3-10.3C14,13.4,14.1,13.2,14.1,13.1z"/>
		<path class="st0" d="M29.2,20.2h-16c-0.3,0-0.6,0.3-0.6,0.6v2.8c0,0.3,0.3,0.6,0.6,0.6h16c0.3,0,0.6-0.3,0.6-0.6v-2.8
			C29.8,20.5,29.5,20.2,29.2,20.2z"/>
	</g>
</g>
</svg>
