<?xml version="1.0" encoding="utf-8"?>
<!-- Generator: Adobe Illustrator 24.0.0, SVG Export Plug-In . SVG Version: 6.00 Build 0)  -->
<svg version="1.1" id="Layer_1" xmlns="http://www.w3.org/2000/svg" xmlns:xlink="http://www.w3.org/1999/xlink" x="0px" y="0px"
	 viewBox="0 0 230 47" style="enable-background:new 0 0 230 47;" xml:space="preserve">
<style type="text/css">
	.st0{enable-background:new    ;}
	.st1{fill:#FFFFFF;}
</style>
<g class="st0">
	<path class="st1" d="M17.3,40h-4.6L0.6,5.6h4.9l9.4,27.9h0.2l9.8-27.9h4.9L17.3,40z"/>
	<path class="st1" d="M31.1,16.5h4.2v3.3h0.2c0.7-1.2,1.7-2.1,3.1-2.9c1.4-0.8,2.8-1.2,4.3-1.2c2.9,0,5.1,0.8,6.6,2.5
		c1.6,1.6,2.3,4,2.3,7V40h-4.4V25.5c-0.1-3.8-2-5.8-5.8-5.8c-1.8,0-3.2,0.7-4.4,2.1c-1.2,1.4-1.8,3.1-1.8,5.1v13h-4.4V16.5z"/>
	<path class="st1" d="M74.1,40.8c-5.1,0-9.3-1.7-12.8-5.1c-3.4-3.4-5.1-7.7-5.1-12.8s1.7-9.4,5.1-12.8c3.4-3.5,7.6-5.2,12.8-5.2
		c5.2,0,9.4,1.9,12.6,5.6l-3.2,3.1c-2.5-3-5.6-4.5-9.5-4.5c-3.8,0-7,1.3-9.6,3.8c-2.5,2.5-3.8,5.8-3.8,9.9s1.3,7.4,3.8,9.9
		c2.6,2.6,5.7,3.8,9.6,3.8c4,0,7.5-1.7,10.4-5l3.2,3.1c-1.6,2-3.6,3.5-6,4.5C79.3,40.2,76.8,40.8,74.1,40.8z"/>
	<path class="st1" d="M89.8,28.2c0-3.6,1.1-6.6,3.4-9c2.3-2.4,5.2-3.6,8.7-3.6c3.5,0,6.4,1.2,8.6,3.6c2.3,2.4,3.5,5.4,3.5,9
		c0,3.6-1.2,6.6-3.5,9c-2.3,2.4-5.2,3.6-8.6,3.6c-3.5,0-6.4-1.2-8.7-3.6C90.9,34.8,89.8,31.9,89.8,28.2z M94.2,28.2
		c0,2.5,0.7,4.6,2.2,6.1c1.5,1.6,3.3,2.4,5.5,2.4c2.2,0,4-0.8,5.5-2.4c1.5-1.6,2.2-3.6,2.2-6.1c0-2.5-0.7-4.5-2.2-6.1
		c-1.5-1.6-3.3-2.4-5.5-2.4c-2.1,0-4,0.8-5.5,2.4C95,23.7,94.2,25.7,94.2,28.2z"/>
	<path class="st1" d="M127.9,40.8c-3.1,0-5.7-1.2-7.9-3.6c-2.2-2.5-3.3-5.4-3.3-8.9s1.1-6.4,3.3-8.9c2.2-2.4,4.8-3.6,7.9-3.6
		c1.7,0,3.3,0.4,4.7,1.1c1.4,0.7,2.5,1.7,3.3,2.9h0.2l-0.2-3.3V5.6h4.4V40h-4.2v-3.3h-0.2c-0.8,1.2-1.9,2.2-3.3,2.9
		C131.2,40.4,129.6,40.8,127.9,40.8z M128.6,36.7c2.2,0,4-0.8,5.3-2.4c1.4-1.6,2.2-3.6,2.2-6.1c0-2.5-0.7-4.5-2.2-6.1
		c-1.4-1.6-3.2-2.4-5.3-2.4c-2.1,0-3.9,0.8-5.3,2.4c-1.4,1.6-2.2,3.6-2.2,6.1c0,2.5,0.7,4.5,2.2,6.1
		C124.7,35.9,126.5,36.7,128.6,36.7z"/>
	<path class="st1" d="M156,40.8c-3.5,0-6.3-1.2-8.5-3.6c-2.2-2.4-3.4-5.4-3.4-9c0-3.6,1.1-6.6,3.3-9c2.2-2.4,5-3.6,8.4-3.6
		c3.5,0,6.3,1.1,8.3,3.4s3.1,5.4,3.1,9.5l0,0.5h-18.5c0.1,2.3,0.8,4.2,2.3,5.6c1.5,1.4,3.2,2.1,5.3,2.1c2.8,0,5-1.4,6.6-4.2l3.9,1.9
		c-1.1,2-2.5,3.5-4.4,4.7S158.4,40.8,156,40.8z M148.9,25.4h13.5c-0.1-1.6-0.8-3-2-4.1c-1.2-1.1-2.8-1.6-4.8-1.6
		c-1.7,0-3.1,0.5-4.3,1.5C150.1,22.3,149.3,23.7,148.9,25.4z"/>
	<path class="st1" d="M175.6,5.6V40h-4.4V5.6H175.6z"/>
	<path class="st1" d="M189.6,15.7c3.3,0,5.8,0.9,7.7,2.6s2.8,4.1,2.8,7.2V40H196v-3.3h-0.2c-1.8,2.7-4.3,4-7.3,4
		c-2.6,0-4.8-0.8-6.5-2.3c-1.7-1.5-2.6-3.5-2.6-5.8c0-2.4,0.9-4.4,2.8-5.8c1.8-1.4,4.3-2.2,7.4-2.2c2.6,0,4.8,0.5,6.5,1.4v-1
		c0-1.5-0.6-2.8-1.8-3.9c-1.2-1.1-2.6-1.6-4.3-1.6c-2.5,0-4.4,1-5.9,3.1l-3.9-2.4C182.3,17.2,185.5,15.7,189.6,15.7z M183.9,32.8
		c0,1.2,0.5,2.1,1.5,2.9c1,0.8,2.1,1.2,3.4,1.2c1.9,0,3.5-0.7,5-2.1c1.5-1.4,2.2-3,2.2-4.8c-1.4-1.1-3.3-1.6-5.8-1.6
		c-1.8,0-3.3,0.4-4.5,1.3S183.9,31.5,183.9,32.8z"/>
	<path class="st1" d="M217.6,40.8c-1.7,0-3.3-0.4-4.7-1.1s-2.5-1.7-3.3-2.9h-0.2V40h-4.2V5.6h4.4v10.8l-0.2,3.3h0.2
		c0.8-1.2,1.9-2.2,3.3-2.9s3-1.1,4.7-1.1c3.1,0,5.7,1.2,7.9,3.6c2.2,2.5,3.3,5.4,3.3,8.9c0,3.5-1.1,6.4-3.3,8.9
		C223.4,39.6,220.7,40.8,217.6,40.8z M216.9,36.7c2.1,0,3.9-0.8,5.3-2.4c1.4-1.6,2.2-3.6,2.2-6.1c0-2.5-0.7-4.5-2.2-6.1
		c-1.4-1.6-3.2-2.4-5.3-2.4c-2.1,0-3.9,0.8-5.4,2.4c-1.4,1.6-2.1,3.6-2.1,6.1c0,2.5,0.7,4.5,2.1,6.1C213,36,214.8,36.7,216.9,36.7z"
		/>
</g>
</svg>
